<svg width="604" height="618" viewBox="0 0 604 618" fill="none" xmlns="http://www.w3.org/2000/svg">
<path d="M13.0264 197.56L99.5136 157.422M13.0264 197.56L21.329 335.244M13.0264 197.56L53.8484 264.67M13.0264 197.56L109.201 270.897M13.0264 197.56L133.417 232.842M13.0264 197.56L190.845 166.42M99.5136 157.422L183.926 102.765M99.5136 157.422L133.417 232.842M99.5136 157.422L190.845 166.42M99.5136 157.422L109.201 270.897M183.926 102.765H308.469M183.926 102.765L190.845 166.42M308.469 102.765L349.983 146.357M308.469 102.765L190.845 166.42M308.469 102.765L260.728 197.56M308.469 102.765L327.15 243.913M349.983 146.357L541.641 93.0801M349.983 146.357L327.15 243.913M349.983 146.357L440.623 210.01M349.983 146.357L260.728 197.56M541.641 93.0801L595.609 223.848M541.641 93.0801L440.623 210.01M541.641 93.0801L459.996 315.871M541.641 93.0801L327.15 243.913M541.641 93.0801L533.338 371.915M595.609 223.848L533.338 371.915M595.609 223.848L459.996 315.871M533.338 371.915L429.552 398.207M533.338 371.915L459.996 315.871M429.552 398.207L342.372 478.468M429.552 398.207L379.043 378.142M429.552 398.207L459.996 315.871M342.372 478.468L250.349 470.857M342.372 478.468L298.782 398.207M342.372 478.468L379.043 378.142M342.372 478.468L349.983 339.396M250.349 470.857L166.629 450.1M250.349 470.857L298.782 398.207M166.629 450.1L73.2217 484.004M166.629 450.1L116.812 398.207M166.629 450.1L239.971 359.461M166.629 450.1L298.782 398.207M73.2217 484.004L13.0264 437.646M73.2217 484.004L116.812 398.207M13.0264 437.646L21.329 335.244M13.0264 437.646L116.812 398.207M21.329 335.244L53.8484 264.67M21.329 335.244L109.201 270.897M21.329 335.244L116.812 398.207M21.329 335.244L144.488 315.871M53.8484 264.67L109.201 270.897M53.8484 264.67L116.812 398.207M109.201 270.897L133.417 232.842M109.201 270.897L144.488 315.871M109.201 270.897H201.916M133.417 232.842L190.845 166.42M133.417 232.842L201.916 270.897M144.488 315.871L201.916 270.897M144.488 315.871L239.971 359.461M144.488 315.871L116.812 398.207M144.488 315.871L190.845 166.42M201.916 270.897L260.728 197.56M201.916 270.897L190.845 166.42M201.916 270.897L308.469 293.038M201.916 270.897L239.971 359.461M260.728 197.56L190.845 166.42M260.728 197.56L308.469 293.038M260.728 197.56L327.15 243.913M260.728 197.56L236.426 360.576M116.812 398.207L236.426 360.576M239.971 359.461L308.469 293.038M239.971 359.461L379.043 378.142M239.971 359.461L298.782 398.207M239.971 359.461L236.426 360.576M308.469 293.038L349.983 339.396M308.469 293.038L327.15 243.913M308.469 293.038L399.108 308.952M308.469 293.038L440.623 210.01M349.983 339.396L459.996 315.871M349.983 339.396L399.108 308.952M349.983 339.396L379.043 378.142M349.983 339.396L236.426 360.576M459.996 315.871L327.15 243.913M459.996 315.871L399.108 308.952M459.996 315.871L440.623 210.01M327.15 243.913L440.623 210.01M327.15 243.913L399.108 308.952M440.623 210.01L399.108 308.952M379.043 378.142L399.108 308.952M379.043 378.142L298.782 398.207" stroke="#212529"/>
<circle cx="182.741" cy="103.437" r="10.4973" fill="#FFD194"/>
<circle cx="99.05" cy="157.167" r="10.4973" fill="#FFD194"/>
<circle cx="14.3245" cy="196.433" r="10.4973" fill="#60C7FF"/>
<circle cx="21.1487" cy="335.624" r="10.4973" fill="#FFD194"/>
<circle cx="10.6506" cy="438.21" r="10.4973" fill="#60C7FF"/>
<circle cx="51.0647" cy="267.734" r="10.4973" fill="#60C7FF"/>
<circle cx="109.548" cy="272.876" r="10.4973" fill="#FFD194"/>
<circle cx="135.265" cy="231.726" r="10.4973" fill="#60C7FF"/>
<circle cx="189.952" cy="167.558" r="10.4973" fill="#60C7FF"/>
<circle cx="308.018" cy="103.437" r="10.4973" fill="#60C7FF"/>
<circle cx="261.69" cy="198.318" r="10.4973" fill="#60C7FF"/>
<circle cx="202.541" cy="269.884" r="10.4973" fill="#FFD194"/>
<circle cx="249.574" cy="280.384" r="10.4973" fill="#FFD194"/>
<circle cx="329.013" cy="242.224" r="10.4973" fill="#60C7FF"/>
<circle cx="308.018" cy="293.868" r="10.4973" fill="#FFD194"/>
<circle cx="239.076" cy="358.532" r="10.4973" fill="#FFD194"/>
<circle cx="145.763" cy="314.859" r="10.4973" fill="#60C7FF"/>
<circle cx="115.711" cy="397.995" r="10.4973" fill="#60C7FF"/>
<circle cx="72.0608" cy="480.806" r="10.4973" fill="#FFD194"/>
<circle cx="166.758" cy="448.708" r="10.4973" fill="#FFD194"/>
<circle cx="249.574" cy="469.7" r="10.4973" fill="#60C7FF"/>
<circle cx="297.52" cy="400.515" r="10.4973" fill="#FFD194"/>
<circle cx="376.902" cy="379.523" r="10.4973" fill="#FFD194"/>
<circle cx="396.301" cy="308.253" r="10.4973" fill="#FFD194"/>
<circle cx="339.511" cy="480.806" r="10.4973" fill="#FFD194"/>
<circle cx="350.008" cy="337.532" r="10.4973" fill="#60C7FF"/>
<circle cx="428.464" cy="397.995" r="10.4973" fill="#60C7FF"/>
<circle cx="438.962" cy="210.734" r="10.4973" fill="#60C7FF"/>
<circle cx="350.008" cy="145.261" r="10.4973" fill="#60C7FF"/>
<circle cx="539.91" cy="96.0305" r="10.4973" fill="#FFD194"/>
<circle cx="592.6" cy="225.489" r="10.4973" fill="#60C7FF"/>
<circle cx="459.957" cy="314.63" r="10.4973" fill="#60C7FF"/>
<circle cx="534.054" cy="369.025" r="10.4973" fill="#60C7FF"/>
<path d="M249.558 555.56C253.494 560.876 259.957 560.926 265.209 557.895C277.445 550.836 291.287 547.223 305.317 546.382C311.351 546.02 315.77 539.659 315.078 533.922C314.317 527.611 308.669 523.797 302.618 524.16C284.555 525.243 267.501 530.904 251.893 539.909C246.654 542.931 246.25 551.092 249.558 555.56Z" fill="#FFD194"/>
<path d="M85.8104 557.835C112.062 566.111 139.787 568.167 166.849 562.692C172.772 561.494 177.375 556.57 176.61 550.231C175.93 544.587 170.102 539.265 164.15 540.469C141.21 545.111 117.282 544.432 94.8798 537.369C89.1232 535.553 82.747 537.107 80.1117 543.067C77.88 548.114 80.0128 556.007 85.8104 557.835Z" fill="#60C7FF"/>
<path d="M45.9211 535.151C46.4927 537.257 47.6517 539.157 49.2628 540.629C50.8739 542.101 52.8706 543.084 55.0196 543.464L58.0208 543.507C59.9437 543.273 61.7729 542.543 63.3288 541.39L65.3938 539.408C66.6391 537.862 67.4485 536.012 67.7384 534.048L67.7989 533.643C68.1552 530.72 67.3774 527.773 65.6258 525.407C63.8742 523.041 61.2821 521.436 58.3831 520.924L55.3818 520.881C53.4589 521.114 51.6297 521.844 50.0739 522.998L48.009 524.98C46.7637 526.525 45.9542 528.376 45.6643 530.34L45.6039 530.745C45.3158 532.216 45.4253 533.736 45.9211 535.151Z" fill="#60C7FF"/>
<path d="M321.245 536.248C278.029 536.973 236.078 550.956 201.069 576.305C197.813 578.674 194.557 581.21 192.399 584.61C190.241 588.009 189.352 592.472 191.093 596.102C193.718 601.573 201.365 602.987 206.938 600.591C216.647 596.416 220.469 583.479 216.703 573.604C212.936 563.729 203.35 556.999 193.217 553.995C183.085 550.991 172.319 551.158 161.758 551.363C138.947 551.802 115.839 552.256 93.6575 546.92C71.4764 541.584 49.9497 529.682 37.8473 510.344" stroke="#212529" stroke-linecap="round" stroke-linejoin="round"/>
<path d="M49.9803 507.111C44.3691 505.055 33.1497 501.956 33.3045 501.98L30.1674 519.299" stroke="#212529" stroke-linecap="round" stroke-linejoin="round"/>
<path d="M110.156 68.4797C102.66 73.6513 101.615 85.0919 106.947 92.1003C112.68 99.6413 123.054 100.497 130.567 95.3086C160.163 74.8909 196.66 68.1903 231.575 75.1267C240.514 76.9031 249.375 69.328 250.547 60.6948C251.838 51.1944 245.078 43.5035 236.115 41.7232C192.471 33.0547 146.645 43.3026 110.156 68.4797Z" fill="#FFD194"/>
<path d="M47.1312 119.764C44.2107 141.26 77.6097 145.832 80.5353 124.304C83.4542 102.806 50.0541 98.2309 47.1312 119.764Z" fill="#FFD194"/>
</svg>
